<?xml version="1.0" encoding="us-ascii" standalone="no"?><svg xmlns="http://www.w3.org/2000/svg" xmlns:xlink="http://www.w3.org/1999/xlink" contentStyleType="text/css" height="676px" preserveAspectRatio="none" style="width:773px;height:676px;background:#FFFFFF;" version="1.1" viewBox="0 0 773 676" width="773px" zoomAndPan="magnify"><defs/><g><text fill="#000000" font-family="sans-serif" font-size="14" font-weight="bold" lengthAdjust="spacing" textLength="267" x="246" y="23.5352">CityRoute &#8212; High-Level Architecture</text><!--cluster S--><g id="cluster_S"><rect fill="none" height="264" rx="2.5" ry="2.5" style="stroke:#333333;stroke-width:1.0;" width="451" x="271.5" y="153.071"/><text fill="#000000" font-family="Arial" font-size="14" font-weight="bold" lengthAdjust="spacing" textLength="58" x="468" y="168.2029">Services</text></g><!--entity Planner--><g id="elem_Planner"><rect fill="#F1F1F1" height="36.0986" rx="2.5" ry="2.5" style="stroke:#333333;stroke-width:0.5;" width="69" x="300" y="338.021"/><text fill="#000000" font-family="Arial" font-size="14" lengthAdjust="spacing" textLength="49" x="310" y="361.1529">Planner</text></g><!--entity Clusterer--><g id="elem_Clusterer"><rect fill="#F1F1F1" height="36.0986" rx="2.5" ry="2.5" style="stroke:#333333;stroke-width:0.5;" width="78" x="295.5" y="267.021"/><text fill="#000000" font-family="Arial" font-size="14" lengthAdjust="spacing" textLength="58" x="305.5" y="290.1529">Clusterer</text></g><!--entity Router--><g id="elem_Router"><rect fill="#F1F1F1" height="36.0986" rx="2.5" ry="2.5" style="stroke:#333333;stroke-width:0.5;" width="63" x="303" y="196.021"/><text fill="#000000" font-family="Arial" font-size="14" lengthAdjust="spacing" textLength="43" x="313" y="219.1529">Router</text></g><!--entity HotelRanker--><g id="elem_HotelRanker"><rect fill="#F1F1F1" height="36.0986" rx="2.5" ry="2.5" style="stroke:#333333;stroke-width:0.5;" width="99" x="583.5" y="338.021"/><text fill="#000000" font-family="Arial" font-size="14" lengthAdjust="spacing" textLength="79" x="593.5" y="361.1529">HotelRanker</text></g><!--entity RestaurantFinder--><g id="elem_RestaurantFinder"><rect fill="#F1F1F1" height="36.0986" rx="2.5" ry="2.5" style="stroke:#333333;stroke-width:0.5;" width="131" x="567.5" y="267.021"/><text fill="#000000" font-family="Arial" font-size="14" lengthAdjust="spacing" textLength="111" x="577.5" y="290.1529">RestaurantFinder</text></g><!--entity FE--><g id="elem_FE"><rect fill="#F1F1F1" height="52.1973" rx="2.5" ry="2.5" style="stroke:#333333;stroke-width:0.5;" width="103" x="31.5" y="313.971"/><text fill="#000000" font-family="Arial" font-size="14" lengthAdjust="spacing" textLength="58" x="41.5" y="337.1029">Frontend</text><text fill="#000000" font-family="Arial" font-size="14" lengthAdjust="spacing" textLength="83" x="41.5" y="353.2015">(React / Vite)</text></g><!--entity API--><g id="elem_API"><rect fill="#F1F1F1" height="52.1973" rx="2.5" ry="2.5" style="stroke:#333333;stroke-width:0.5;" width="80" x="43" y="417.971"/><text fill="#000000" font-family="Arial" font-size="14" lengthAdjust="spacing" textLength="22" x="53" y="441.1029">API</text><text fill="#000000" font-family="Arial" font-size="14" lengthAdjust="spacing" textLength="60" x="53" y="457.2015">(FastAPI)</text></g><!--entity DATA--><g id="elem_DATA"><path d="M510,451.081 C510,441.081 633,441.081 633,441.081 C633,441.081 756,441.081 756,451.081 L756,493.0576 C756,503.0576 633,503.0576 633,503.0576 C633,503.0576 510,503.0576 510,493.0576 L510,451.081 " fill="#F1F1F1" style="stroke:#181818;stroke-width:0.5;"/><path d="M510,451.081 C510,461.081 633,461.081 633,461.081 C633,461.081 756,461.081 756,451.081 " fill="none" style="stroke:#181818;stroke-width:0.5;"/><text fill="#000000" font-family="sans-serif" font-size="14" lengthAdjust="spacing" textLength="31" x="520" y="478.6162">Data</text><text fill="#000000" font-family="sans-serif" font-size="14" lengthAdjust="spacing" textLength="226" x="520" y="495.1045">(Seeds CSV &#183; In-Memory Storage)</text></g><!--entity MAP--><g id="elem_MAP"><path d="M294.3851,58.1119 C297.7326,51.1661 302.7538,50.9695 308.0469,55.8675 C311.2371,47.7065 316.5041,47.7436 322.5028,52.7945 C324.7114,46.2999 330.468,45.0219 334.5372,50.9989 C341.0634,43.4883 345.666,45.491 349.9823,53.2361 C355.4043,47.8578 360.2116,49.5278 362.2911,56.5531 C367.703,50.1052 373.4484,51.7018 375.7796,59.475 C383.0872,62.2823 385.2175,69.1339 378.2311,74.3041 C386.0233,77.2937 386.9098,85.3743 380.6938,90.4946 C387.287,95.0303 387.0179,102.2379 379.3842,105.5348 C386.0168,111.9629 384.6704,116.5851 377.1655,120.9827 C374.8383,129.7776 366.8779,129.5962 361.8114,123.8814 C360.4419,131.0963 356.1904,132.7023 350.1752,128.701 C347.2593,136.3032 341.1577,139.0072 335.0329,132.0349 C328.3922,137.5221 324.2043,135.4265 321.9028,127.7174 C316.3338,133.0027 311.0039,132.1466 309.1612,124.1442 C303.9428,130.8819 296.9692,129.1492 294.4237,121.4211 C285.9832,118.0951 285.3679,111.2205 292.9411,106.3221 C284.7564,103.6327 283.171,97.148 289.6043,91.2272 C281.6717,85.4067 281.486,77.8544 291.3057,73.7634 C283.622,67.8265 286.7406,61.0329 294.3851,58.1119 " fill="#F1F1F1" style="stroke:#666666;stroke-width:0.5;"/><text fill="#333333" font-family="sans-serif" font-size="14" lengthAdjust="spacing" textLength="65" x="301" y="77.8762">Map Tiles</text><text fill="#333333" font-family="sans-serif" font-size="14" lengthAdjust="spacing" textLength="67" x="301" y="94.3645">(External)</text><text fill="#333333" font-family="sans-serif" font-size="14" lengthAdjust="spacing" textLength="67" x="301" y="110.8527">(optional)</text></g><!--link FE to API--><g id="link_FE_API"><path d="M83,366.541 C83,382.171 83,395.911 83,411.561 " fill="none" id="FE-to-API" style="stroke:#555555;stroke-width:1.0;"/><polygon fill="#555555" points="83,417.561,87,408.561,83,412.561,79,408.561,83,417.561" style="stroke:#555555;stroke-width:1.0;"/><text fill="#333333" font-family="sans-serif" font-size="13" lengthAdjust="spacing" textLength="129" x="7" y="397.1394">HTTP/JSON requests</text></g><!--link FE to API--><g id="link_FE_API"><path d="M107.88,366.421 C109,382.051 109.01,401.991 107.89,417.641 " fill="none" id="FE-API" style="stroke:#555555;stroke-width:1.0;"/><text fill="#333333" font-family="sans-serif" font-size="13" lengthAdjust="spacing" textLength="99" x="45" y="397.1394">JSON responses</text></g><!--link API to S--><g id="link_API_S"><path d="M123.26,438.561 C157.84,433.711 209.31,426.491 252.6675,420.4098 C258.0872,419.6496 263.3801,418.9072 268.4975,418.1895 C271.0561,417.8307 267.629,418.3113 270.0938,417.9656 " fill="none" id="API-to-S" style="stroke:#555555;stroke-width:1.0;"/><polygon fill="#555555" points="276.0357,417.1323,266.5673,414.4211,271.0841,417.8267,267.6784,422.3435,276.0357,417.1323" style="stroke:#555555;stroke-width:1.0;"/><text fill="#333333" font-family="sans-serif" font-size="13" lengthAdjust="spacing" textLength="81" x="165.5" y="417.9594">internal calls</text></g><!--link S to DATA--><g id="link_S_DATA"><path d="M373.7572,417.2001 C373.9794,417.2474 374.2025,417.2947 374.4262,417.3423 C374.8738,417.4374 375.3243,417.5331 375.7778,417.6295 C377.5917,418.0149 379.4528,418.4103 381.3579,418.815 C385.1682,419.6246 389.1548,420.4716 393.2938,421.351 C426.405,428.386 463.391,436.244 503.631,444.794 " fill="none" id="S-to-DATA" style="stroke:#555555;stroke-width:1.0;"/><polygon fill="#555555" points="509.5,446.041,501.5279,440.2578,504.6092,445.0018,499.8652,448.0832,509.5,446.041" style="stroke:#555555;stroke-width:1.0;"/><text fill="#333333" font-family="sans-serif" font-size="13" lengthAdjust="spacing" textLength="65" x="414" y="422.5394">read/write</text></g><!--link FE to MAP--><g id="link_FE_MAP"><path d="M110.23,313.681 C154.02,269.631 242.27,180.851 293.74,129.071 " fill="none" id="FE-MAP" style="stroke:#555555;stroke-width:1.0;stroke-dasharray:7.0,7.0;"/><text fill="#333333" font-family="sans-serif" font-size="13" lengthAdjust="spacing" textLength="79" x="166.5" y="158.9894">tiles (HTTPS)</text><text fill="#333333" font-family="sans-serif" font-size="13" lengthAdjust="spacing" textLength="60" x="176" y="174.2999">(optional)</text></g><!--link API to DATA--><!--link FE to S--><rect fill="none" height="125.418" id="_legend" rx="7.5" ry="7.5" style="stroke:#000000;stroke-width:1.0;" width="343" x="404" y="531.0576"/><text fill="#000000" font-family="sans-serif" font-size="14" lengthAdjust="spacing" textLength="45" x="409" y="549.5927">Boxes:</text><text fill="#000000" font-family="sans-serif" font-size="14" lengthAdjust="spacing" textLength="237" x="417" y="566.081">Frontend &#8594; API &#8594; Services &#8594; Data</text><text fill="#000000" font-family="sans-serif" font-size="14" lengthAdjust="spacing" textLength="63" x="409" y="582.5693">Optional:</text><text fill="#000000" font-family="sans-serif" font-size="14" lengthAdjust="spacing" textLength="235" x="417" y="599.0576">Frontend &#8230;&#8230; Map Tiles (external)</text><text fill="#000000" font-family="sans-serif" font-size="14" lengthAdjust="spacing" textLength="53" x="409" y="615.5459">Arrows:</text><text fill="#000000" font-family="sans-serif" font-size="14" lengthAdjust="spacing" textLength="325" x="417" y="632.0341">Solid: runtime request/response or internal call</text><text fill="#000000" font-family="sans-serif" font-size="14" lengthAdjust="spacing" textLength="235" x="417" y="648.5224">Dotted: optional/external retrieval</text><!--SRC=[TLJ1RjGm4BtxAqRbG7j8zu3Wq0DIQ1krY6rNpQeNu32DfrchhhtOJhSLGkB41o2-WL_WpgVqInWxpf8KOQsquynxapTlx0GLDC6X2WyNjWi4Zrz_m8bgLyKxkYCDfMjMAb0JEaT2-1jbrkZm5gwmkMcTxOmyjDewU5QbDKBu5KgxKQQ5QzIUHXd7vT2q_DhF0k2DTP9Shl8YBNvQMHFEy9POW48jlepeZRQT_9VwAgrCdPORiz4vkqdiZ7cPrdzuug_MdSenW8pyO7Ol29i0CxXaQ_Ps03rKnsDekJXbL8K-SDG3E9XKgydTgOPyIjP9q2Yxq6WCkPJCyHHmg3iVo6N8TZS5fOdsY3wSfazi87s1vYPZHlidTSW7x1oQK2aZXufF7aQt90QyGi-K8uxOWff8ihpw4dx_WbDJpEdMkWUeWtNOPkkEocKf-g7kp74DIwN9C_VudXKRr7iSstLGDiQ9CIyNGZo7eYXWZih0jROR7xUYEeR2yUaDnUleE1p0oNAvcBsjpy-ueKyTQ_OY9WfDrw7WiJ4aP_tQ6azUz7a-kuQBr9nNfXS23MhjHRrDHkMSTuHojd5y5WPLvrakKEvX4BU_7yKp9yGcOJUggoSDnXAbOrjR0eqFF3POiG0lec085b9x85MS3rDwjUzNIaeo7xEevCFeMIsOtlBPxTdfwjoJF-20ptq-r_3uxNioBVuFnpDjuZ0PEdJrbFRr9_zWEphO7RhUOs0Pxrj-KssraknNPuBYgvq7CXki1xvw4wyJwSY6GCmQ79fjFNKKdA8x_ZomZBw_Fm00]--></g></svg>