<?xml version="1.0" encoding="us-ascii" standalone="no"?><svg xmlns="http://www.w3.org/2000/svg" xmlns:xlink="http://www.w3.org/1999/xlink" contentStyleType="text/css" height="866px" preserveAspectRatio="none" style="width:1292px;height:866px;background:#FFFFFF;" version="1.1" viewBox="0 0 1292 866" width="1292px" zoomAndPan="magnify"><defs/><g><!--class Itinerary--><g id="elem_Itinerary"><rect codeLine="4" fill="#F1F1F1" height="130.4414" id="Itinerary" rx="2.5" ry="2.5" style="stroke:#181818;stroke-width:0.5;" width="89" x="134.5" y="198.44"/><ellipse cx="149.5" cy="214.44" fill="#ADD1B2" rx="11" ry="11" style="stroke:#181818;stroke-width:1.0;"/><path d="M151.9731,220.5831 Q151.3921,220.8819 150.7529,221.0313 Q150.1138,221.1807 149.4082,221.1807 Q146.9014,221.1807 145.5815,219.5289 Q144.2617,217.877 144.2617,214.7559 Q144.2617,211.6265 145.5815,209.9747 Q146.9014,208.3228 149.4082,208.3228 Q150.1138,208.3228 150.7612,208.4722 Q151.4087,208.6216 151.9731,208.9205 L151.9731,211.6431 Q151.3423,211.0621 150.7488,210.7923 Q150.1553,210.5225 149.5244,210.5225 Q148.1797,210.5225 147.4949,211.5892 Q146.8101,212.6558 146.8101,214.7559 Q146.8101,216.8477 147.4949,217.9144 Q148.1797,218.981 149.5244,218.981 Q150.1553,218.981 150.7488,218.7112 Q151.3423,218.4415 151.9731,217.8604 Z " fill="#000000"/><text fill="#000000" font-family="sans-serif" font-size="14" lengthAdjust="spacing" textLength="57" x="163.5" y="219.731">Itinerary</text><line style="stroke:#181818;stroke-width:0.5;" x1="135.5" x2="222.5" y1="230.44" y2="230.44"/><text fill="#000000" font-family="sans-serif" font-size="14" lengthAdjust="spacing" textLength="13" x="140.5" y="247.9752">id</text><text fill="#000000" font-family="sans-serif" font-size="14" lengthAdjust="spacing" textLength="23" x="140.5" y="264.4634">city</text><text fill="#000000" font-family="sans-serif" font-size="14" lengthAdjust="spacing" textLength="31" x="140.5" y="280.9517">days</text><text fill="#000000" font-family="sans-serif" font-size="14" lengthAdjust="spacing" textLength="35" x="140.5" y="297.44">hotel</text><text fill="#000000" font-family="sans-serif" font-size="14" lengthAdjust="spacing" textLength="63" x="140.5" y="313.9283">warnings</text><line style="stroke:#181818;stroke-width:0.5;" x1="135.5" x2="222.5" y1="320.8814" y2="320.8814"/></g><!--class DayPlan--><g id="elem_DayPlan"><rect codeLine="12" fill="#F1F1F1" height="130.4414" id="DayPlan" rx="2.5" ry="2.5" style="stroke:#181818;stroke-width:0.5;" width="86" x="73" y="406.37"/><ellipse cx="88" cy="422.37" fill="#ADD1B2" rx="11" ry="11" style="stroke:#181818;stroke-width:1.0;"/><path d="M90.4731,428.5131 Q89.8921,428.8119 89.2529,428.9613 Q88.6138,429.1107 87.9082,429.1107 Q85.4014,429.1107 84.0815,427.4589 Q82.7617,425.807 82.7617,422.6859 Q82.7617,419.5565 84.0815,417.9047 Q85.4014,416.2528 87.9082,416.2528 Q88.6138,416.2528 89.2612,416.4022 Q89.9087,416.5516 90.4731,416.8505 L90.4731,419.5731 Q89.8423,418.9921 89.2488,418.7223 Q88.6553,418.4525 88.0244,418.4525 Q86.6797,418.4525 85.9949,419.5192 Q85.3101,420.5858 85.3101,422.6859 Q85.3101,424.7777 85.9949,425.8444 Q86.6797,426.911 88.0244,426.911 Q88.6553,426.911 89.2488,426.6412 Q89.8423,426.3715 90.4731,425.7904 Z " fill="#000000"/><text fill="#000000" font-family="sans-serif" font-size="14" lengthAdjust="spacing" textLength="54" x="102" y="427.661">DayPlan</text><line style="stroke:#181818;stroke-width:0.5;" x1="74" x2="158" y1="438.37" y2="438.37"/><text fill="#000000" font-family="sans-serif" font-size="14" lengthAdjust="spacing" textLength="13" x="79" y="455.9052">id</text><text fill="#000000" font-family="sans-serif" font-size="14" lengthAdjust="spacing" textLength="34" x="79" y="472.3934">visits</text><text fill="#000000" font-family="sans-serif" font-size="14" lengthAdjust="spacing" textLength="38" x="79" y="488.8817">lunch</text><text fill="#000000" font-family="sans-serif" font-size="14" lengthAdjust="spacing" textLength="45" x="79" y="505.37">dinner</text><text fill="#000000" font-family="sans-serif" font-size="14" lengthAdjust="spacing" textLength="65" x="79" y="521.8583">totalTime</text><line style="stroke:#181818;stroke-width:0.5;" x1="74" x2="158" y1="528.8114" y2="528.8114"/></g><!--class POI--><g id="elem_POI"><rect codeLine="20" fill="#F1F1F1" height="163.418" id="POI" rx="2.5" ry="2.5" style="stroke:#181818;stroke-width:0.5;" width="98" x="7" y="663.28"/><ellipse cx="41.35" cy="679.28" fill="#ADD1B2" rx="11" ry="11" style="stroke:#181818;stroke-width:1.0;"/><path d="M43.8231,685.4231 Q43.2421,685.7219 42.6029,685.8713 Q41.9638,686.0207 41.2582,686.0207 Q38.7514,686.0207 37.4315,684.3689 Q36.1117,682.717 36.1117,679.5959 Q36.1117,676.4665 37.4315,674.8147 Q38.7514,673.1628 41.2582,673.1628 Q41.9638,673.1628 42.6112,673.3122 Q43.2587,673.4616 43.8231,673.7605 L43.8231,676.4831 Q43.1923,675.9021 42.5988,675.6323 Q42.0053,675.3625 41.3744,675.3625 Q40.0297,675.3625 39.3449,676.4292 Q38.6601,677.4958 38.6601,679.5959 Q38.6601,681.6877 39.3449,682.7544 Q40.0297,683.821 41.3744,683.821 Q42.0053,683.821 42.5988,683.5512 Q43.1923,683.2815 43.8231,682.7004 Z " fill="#000000"/><text fill="#000000" font-family="sans-serif" font-size="14" lengthAdjust="spacing" textLength="23" x="59.65" y="684.571">POI</text><line style="stroke:#181818;stroke-width:0.5;" x1="8" x2="104" y1="695.28" y2="695.28"/><text fill="#000000" font-family="sans-serif" font-size="14" lengthAdjust="spacing" textLength="13" x="13" y="712.8152">id</text><text fill="#000000" font-family="sans-serif" font-size="14" lengthAdjust="spacing" textLength="38" x="13" y="729.3034">name</text><text fill="#000000" font-family="sans-serif" font-size="14" lengthAdjust="spacing" textLength="17" x="13" y="745.7917">lat</text><text fill="#000000" font-family="sans-serif" font-size="14" lengthAdjust="spacing" textLength="22" x="13" y="762.28">lon</text><text fill="#000000" font-family="sans-serif" font-size="14" lengthAdjust="spacing" textLength="41" x="13" y="778.7683">rating</text><text fill="#000000" font-family="sans-serif" font-size="14" lengthAdjust="spacing" textLength="86" x="13" y="795.2566">reviewCount</text><text fill="#000000" font-family="sans-serif" font-size="14" lengthAdjust="spacing" textLength="53" x="13" y="811.7448">mustGo</text><line style="stroke:#181818;stroke-width:0.5;" x1="8" x2="104" y1="818.698" y2="818.698"/></g><!--class Hotel--><g id="elem_Hotel"><rect codeLine="30" fill="#F1F1F1" height="163.418" id="Hotel" rx="2.5" ry="2.5" style="stroke:#181818;stroke-width:0.5;" width="98" x="194" y="389.88"/><ellipse cx="222.5" cy="405.88" fill="#ADD1B2" rx="11" ry="11" style="stroke:#181818;stroke-width:1.0;"/><path d="M224.9731,412.0231 Q224.3921,412.3219 223.7529,412.4713 Q223.1138,412.6207 222.4082,412.6207 Q219.9014,412.6207 218.5815,410.9689 Q217.2617,409.317 217.2617,406.1959 Q217.2617,403.0665 218.5815,401.4147 Q219.9014,399.7628 222.4082,399.7628 Q223.1138,399.7628 223.7612,399.9122 Q224.4087,400.0616 224.9731,400.3605 L224.9731,403.0831 Q224.3423,402.5021 223.7488,402.2323 Q223.1553,401.9625 222.5244,401.9625 Q221.1797,401.9625 220.4949,403.0292 Q219.8101,404.0958 219.8101,406.1959 Q219.8101,408.2877 220.4949,409.3544 Q221.1797,410.421 222.5244,410.421 Q223.1553,410.421 223.7488,410.1512 Q224.3423,409.8815 224.9731,409.3004 Z " fill="#000000"/><text fill="#000000" font-family="sans-serif" font-size="14" lengthAdjust="spacing" textLength="36" x="239.5" y="411.171">Hotel</text><line style="stroke:#181818;stroke-width:0.5;" x1="195" x2="291" y1="421.88" y2="421.88"/><text fill="#000000" font-family="sans-serif" font-size="14" lengthAdjust="spacing" textLength="13" x="200" y="439.4152">id</text><text fill="#000000" font-family="sans-serif" font-size="14" lengthAdjust="spacing" textLength="38" x="200" y="455.9034">name</text><text fill="#000000" font-family="sans-serif" font-size="14" lengthAdjust="spacing" textLength="17" x="200" y="472.3917">lat</text><text fill="#000000" font-family="sans-serif" font-size="14" lengthAdjust="spacing" textLength="22" x="200" y="488.88">lon</text><text fill="#000000" font-family="sans-serif" font-size="14" lengthAdjust="spacing" textLength="41" x="200" y="505.3683">rating</text><text fill="#000000" font-family="sans-serif" font-size="14" lengthAdjust="spacing" textLength="86" x="200" y="521.8566">reviewCount</text><text fill="#000000" font-family="sans-serif" font-size="14" lengthAdjust="spacing" textLength="68" x="200" y="538.3448">priceLevel</text><line style="stroke:#181818;stroke-width:0.5;" x1="195" x2="291" y1="545.298" y2="545.298"/></g><!--class Restaurant--><g id="elem_Restaurant"><rect codeLine="40" fill="#F1F1F1" height="229.3711" id="Restaurant" rx="2.5" ry="2.5" style="stroke:#181818;stroke-width:0.5;" width="106" x="140" y="630.3"/><ellipse cx="155" cy="646.3" fill="#ADD1B2" rx="11" ry="11" style="stroke:#181818;stroke-width:1.0;"/><path d="M157.4731,652.4431 Q156.8921,652.7419 156.2529,652.8913 Q155.6138,653.0407 154.9082,653.0407 Q152.4014,653.0407 151.0815,651.3889 Q149.7617,649.737 149.7617,646.6159 Q149.7617,643.4865 151.0815,641.8347 Q152.4014,640.1828 154.9082,640.1828 Q155.6138,640.1828 156.2612,640.3322 Q156.9087,640.4816 157.4731,640.7805 L157.4731,643.5031 Q156.8423,642.9221 156.2488,642.6523 Q155.6553,642.3825 155.0244,642.3825 Q153.6797,642.3825 152.9949,643.4492 Q152.3101,644.5158 152.3101,646.6159 Q152.3101,648.7077 152.9949,649.7744 Q153.6797,650.841 155.0244,650.841 Q155.6553,650.841 156.2488,650.5712 Q156.8423,650.3015 157.4731,649.7204 Z " fill="#000000"/><text fill="#000000" font-family="sans-serif" font-size="14" lengthAdjust="spacing" textLength="74" x="169" y="651.591">Restaurant</text><line style="stroke:#181818;stroke-width:0.5;" x1="141" x2="245" y1="662.3" y2="662.3"/><text fill="#000000" font-family="sans-serif" font-size="14" lengthAdjust="spacing" textLength="13" x="146" y="679.8352">id</text><text fill="#000000" font-family="sans-serif" font-size="14" lengthAdjust="spacing" textLength="38" x="146" y="696.3234">name</text><text fill="#000000" font-family="sans-serif" font-size="14" lengthAdjust="spacing" textLength="17" x="146" y="712.8117">lat</text><text fill="#000000" font-family="sans-serif" font-size="14" lengthAdjust="spacing" textLength="22" x="146" y="729.3">lon</text><text fill="#000000" font-family="sans-serif" font-size="14" lengthAdjust="spacing" textLength="41" x="146" y="745.7883">rating</text><text fill="#000000" font-family="sans-serif" font-size="14" lengthAdjust="spacing" textLength="86" x="146" y="762.2766">reviewCount</text><text fill="#000000" font-family="sans-serif" font-size="14" lengthAdjust="spacing" textLength="68" x="146" y="778.7648">priceLevel</text><text fill="#000000" font-family="sans-serif" font-size="14" lengthAdjust="spacing" textLength="55" x="146" y="795.2531">cuisines</text><text fill="#000000" font-family="sans-serif" font-size="14" lengthAdjust="spacing" textLength="59" x="146" y="811.7414">dietTags</text><text fill="#000000" font-family="sans-serif" font-size="14" lengthAdjust="spacing" textLength="76" x="146" y="828.2297">openLunch</text><text fill="#000000" font-family="sans-serif" font-size="14" lengthAdjust="spacing" textLength="81" x="146" y="844.718">openDinner</text><line style="stroke:#181818;stroke-width:0.5;" x1="141" x2="245" y1="851.6711" y2="851.6711"/></g><!--class UserPrefs--><g id="elem_UserPrefs"><rect codeLine="54" fill="#F1F1F1" height="130.4414" id="UserPrefs" rx="2.5" ry="2.5" style="stroke:#181818;stroke-width:0.5;" width="145" x="817.5" y="7"/><ellipse cx="854.1" cy="23" fill="#ADD1B2" rx="11" ry="11" style="stroke:#181818;stroke-width:1.0;"/><path d="M856.5731,29.1431 Q855.9921,29.4419 855.3529,29.5913 Q854.7138,29.7407 854.0082,29.7407 Q851.5014,29.7407 850.1815,28.0889 Q848.8617,26.437 848.8617,23.3159 Q848.8617,20.1865 850.1815,18.5347 Q851.5014,16.8828 854.0082,16.8828 Q854.7138,16.8828 855.3612,17.0322 Q856.0087,17.1816 856.5731,17.4805 L856.5731,20.2031 Q855.9423,19.6221 855.3488,19.3523 Q854.7553,19.0825 854.1244,19.0825 Q852.7797,19.0825 852.0949,20.1492 Q851.4101,21.2158 851.4101,23.3159 Q851.4101,25.4077 852.0949,26.4744 Q852.7797,27.541 854.1244,27.541 Q854.7553,27.541 855.3488,27.2712 Q855.9423,27.0015 856.5731,26.4204 Z " fill="#000000"/><text fill="#000000" font-family="sans-serif" font-size="14" lengthAdjust="spacing" textLength="65" x="872.9" y="28.291">UserPrefs</text><line style="stroke:#181818;stroke-width:0.5;" x1="818.5" x2="961.5" y1="39" y2="39"/><text fill="#000000" font-family="sans-serif" font-size="14" lengthAdjust="spacing" textLength="31" x="823.5" y="56.5352">days</text><text fill="#000000" font-family="sans-serif" font-size="14" lengthAdjust="spacing" textLength="76" x="823.5" y="73.0234">travelMode</text><text fill="#000000" font-family="sans-serif" font-size="14" lengthAdjust="spacing" textLength="133" x="823.5" y="89.5117">detourLimitMinutes</text><text fill="#000000" font-family="sans-serif" font-size="14" lengthAdjust="spacing" textLength="59" x="823.5" y="106">dietTags</text><text fill="#000000" font-family="sans-serif" font-size="14" lengthAdjust="spacing" textLength="77" x="823.5" y="122.4883">priceRange</text><line style="stroke:#181818;stroke-width:0.5;" x1="818.5" x2="961.5" y1="129.4414" y2="129.4414"/></g><!--class Lock--><g id="elem_Lock"><rect codeLine="62" fill="#F1F1F1" height="80.9766" id="Lock" rx="2.5" ry="2.5" style="stroke:#181818;stroke-width:0.5;" width="63" x="997.5" y="31.73"/><ellipse cx="1012.5" cy="47.73" fill="#ADD1B2" rx="11" ry="11" style="stroke:#181818;stroke-width:1.0;"/><path d="M1014.9731,53.8731 Q1014.3921,54.1719 1013.7529,54.3213 Q1013.1138,54.4707 1012.4082,54.4707 Q1009.9014,54.4707 1008.5815,52.8189 Q1007.2617,51.167 1007.2617,48.0459 Q1007.2617,44.9165 1008.5815,43.2647 Q1009.9014,41.6128 1012.4082,41.6128 Q1013.1138,41.6128 1013.7612,41.7622 Q1014.4087,41.9116 1014.9731,42.2105 L1014.9731,44.9331 Q1014.3423,44.3521 1013.7488,44.0823 Q1013.1553,43.8125 1012.5244,43.8125 Q1011.1797,43.8125 1010.4949,44.8792 Q1009.8101,45.9458 1009.8101,48.0459 Q1009.8101,50.1377 1010.4949,51.2044 Q1011.1797,52.271 1012.5244,52.271 Q1013.1553,52.271 1013.7488,52.0012 Q1014.3423,51.7315 1014.9731,51.1504 Z " fill="#000000"/><text fill="#000000" font-family="sans-serif" font-size="14" lengthAdjust="spacing" textLength="31" x="1026.5" y="53.021">Lock</text><line style="stroke:#181818;stroke-width:0.5;" x1="998.5" x2="1059.5" y1="63.73" y2="63.73"/><text fill="#000000" font-family="sans-serif" font-size="14" lengthAdjust="spacing" textLength="29" x="1003.5" y="81.2652">type</text><text fill="#000000" font-family="sans-serif" font-size="14" lengthAdjust="spacing" textLength="13" x="1003.5" y="97.7534">id</text><line style="stroke:#181818;stroke-width:0.5;" x1="998.5" x2="1059.5" y1="104.7066" y2="104.7066"/></g><!--class PlannerService--><g id="elem_PlannerService"><rect codeLine="68" fill="#F1F1F1" height="130.4414" id="PlannerService" rx="2.5" ry="2.5" style="stroke:#181818;stroke-width:0.5;" width="322" x="461" y="7"/><ellipse cx="567.75" cy="23" fill="#ADD1B2" rx="11" ry="11" style="stroke:#181818;stroke-width:1.0;"/><path d="M570.2231,29.1431 Q569.6421,29.4419 569.0029,29.5913 Q568.3638,29.7407 567.6582,29.7407 Q565.1514,29.7407 563.8315,28.0889 Q562.5117,26.437 562.5117,23.3159 Q562.5117,20.1865 563.8315,18.5347 Q565.1514,16.8828 567.6582,16.8828 Q568.3638,16.8828 569.0112,17.0322 Q569.6587,17.1816 570.2231,17.4805 L570.2231,20.2031 Q569.5923,19.6221 568.9988,19.3523 Q568.4053,19.0825 567.7744,19.0825 Q566.4297,19.0825 565.7449,20.1492 Q565.0601,21.2158 565.0601,23.3159 Q565.0601,25.4077 565.7449,26.4744 Q566.4297,27.541 567.7744,27.541 Q568.4053,27.541 568.9988,27.2712 Q569.5923,27.0015 570.2231,26.4204 Z " fill="#000000"/><text fill="#000000" font-family="sans-serif" font-size="14" lengthAdjust="spacing" textLength="100" x="588.25" y="28.291">PlannerService</text><line style="stroke:#181818;stroke-width:0.5;" x1="462" x2="782" y1="39" y2="39"/><line style="stroke:#181818;stroke-width:0.5;" x1="462" x2="782" y1="47" y2="47"/><text fill="#000000" font-family="sans-serif" font-size="14" lengthAdjust="spacing" textLength="272" x="467" y="64.5352">+generate(prefs, pois, locks?) : Itinerary</text><text fill="#000000" font-family="sans-serif" font-size="14" lengthAdjust="spacing" textLength="234" x="467" y="81.0234">+suggestHotel(itin, prefs) : Hotel[]</text><text fill="#000000" font-family="sans-serif" font-size="14" lengthAdjust="spacing" textLength="310" x="467" y="97.5117">+autoPickMeals(itin, dayIds?, prefs) : Itinerary</text><text fill="#000000" font-family="sans-serif" font-size="14" lengthAdjust="spacing" textLength="230" x="467" y="114">+regenerate(itin, locks) : Itinerary</text><text fill="#000000" font-family="sans-serif" font-size="14" lengthAdjust="spacing" textLength="156" x="467" y="130.4883">+export(itin, fmt) : File</text></g><!--class Clusterer--><g id="elem_Clusterer"><rect codeLine="76" fill="#F1F1F1" height="64.4883" id="Clusterer" rx="2.5" ry="2.5" style="stroke:#181818;stroke-width:0.5;" width="200" x="259" y="231.42"/><ellipse cx="323.25" cy="247.42" fill="#ADD1B2" rx="11" ry="11" style="stroke:#181818;stroke-width:1.0;"/><path d="M325.7231,253.5631 Q325.1421,253.8619 324.5029,254.0113 Q323.8638,254.1607 323.1582,254.1607 Q320.6514,254.1607 319.3315,252.5089 Q318.0117,250.857 318.0117,247.7359 Q318.0117,244.6065 319.3315,242.9547 Q320.6514,241.3028 323.1582,241.3028 Q323.8638,241.3028 324.5112,241.4522 Q325.1587,241.6016 325.7231,241.9005 L325.7231,244.6231 Q325.0923,244.0421 324.4988,243.7723 Q323.9053,243.5025 323.2744,243.5025 Q321.9297,243.5025 321.2449,244.5692 Q320.5601,245.6358 320.5601,247.7359 Q320.5601,249.8277 321.2449,250.8944 Q321.9297,251.961 323.2744,251.961 Q323.9053,251.961 324.4988,251.6912 Q325.0923,251.4215 325.7231,250.8404 Z " fill="#000000"/><text fill="#000000" font-family="sans-serif" font-size="14" lengthAdjust="spacing" textLength="63" x="343.75" y="252.711">Clusterer</text><line style="stroke:#181818;stroke-width:0.5;" x1="260" x2="458" y1="263.42" y2="263.42"/><line style="stroke:#181818;stroke-width:0.5;" x1="260" x2="458" y1="271.42" y2="271.42"/><text fill="#000000" font-family="sans-serif" font-size="14" lengthAdjust="spacing" textLength="188" x="265" y="288.9552">+cluster(pois, k) : DayPlan[]</text></g><!--class Router--><g id="elem_Router"><rect codeLine="80" fill="#F1F1F1" height="64.4883" id="Router" rx="2.5" ry="2.5" style="stroke:#181818;stroke-width:0.5;" width="255" x="494.5" y="231.42"/><ellipse cx="594.75" cy="247.42" fill="#ADD1B2" rx="11" ry="11" style="stroke:#181818;stroke-width:1.0;"/><path d="M597.2231,253.5631 Q596.6421,253.8619 596.0029,254.0113 Q595.3638,254.1607 594.6582,254.1607 Q592.1514,254.1607 590.8315,252.5089 Q589.5117,250.857 589.5117,247.7359 Q589.5117,244.6065 590.8315,242.9547 Q592.1514,241.3028 594.6582,241.3028 Q595.3638,241.3028 596.0112,241.4522 Q596.6587,241.6016 597.2231,241.9005 L597.2231,244.6231 Q596.5923,244.0421 595.9988,243.7723 Q595.4053,243.5025 594.7744,243.5025 Q593.4297,243.5025 592.7449,244.5692 Q592.0601,245.6358 592.0601,247.7359 Q592.0601,249.8277 592.7449,250.8944 Q593.4297,251.961 594.7744,251.961 Q595.4053,251.961 595.9988,251.6912 Q596.5923,251.4215 597.2231,250.8404 Z " fill="#000000"/><text fill="#000000" font-family="sans-serif" font-size="14" lengthAdjust="spacing" textLength="46" x="615.25" y="252.711">Router</text><line style="stroke:#181818;stroke-width:0.5;" x1="495.5" x2="748.5" y1="263.42" y2="263.42"/><line style="stroke:#181818;stroke-width:0.5;" x1="495.5" x2="748.5" y1="271.42" y2="271.42"/><text fill="#000000" font-family="sans-serif" font-size="14" lengthAdjust="spacing" textLength="243" x="500.5" y="288.9552">+route(dayPlans, locks?) : DayPlan[]</text></g><!--class RestaurantFinder--><g id="elem_RestaurantFinder"><rect codeLine="84" fill="#F1F1F1" height="64.4883" id="RestaurantFinder" rx="2.5" ry="2.5" style="stroke:#181818;stroke-width:0.5;" width="279" x="784.5" y="231.42"/><ellipse cx="860.75" cy="247.42" fill="#ADD1B2" rx="11" ry="11" style="stroke:#181818;stroke-width:1.0;"/><path d="M863.2231,253.5631 Q862.6421,253.8619 862.0029,254.0113 Q861.3638,254.1607 860.6582,254.1607 Q858.1514,254.1607 856.8315,252.5089 Q855.5117,250.857 855.5117,247.7359 Q855.5117,244.6065 856.8315,242.9547 Q858.1514,241.3028 860.6582,241.3028 Q861.3638,241.3028 862.0112,241.4522 Q862.6587,241.6016 863.2231,241.9005 L863.2231,244.6231 Q862.5923,244.0421 861.9988,243.7723 Q861.4053,243.5025 860.7744,243.5025 Q859.4297,243.5025 858.7449,244.5692 Q858.0601,245.6358 858.0601,247.7359 Q858.0601,249.8277 858.7449,250.8944 Q859.4297,251.961 860.7744,251.961 Q861.4053,251.961 861.9988,251.6912 Q862.5923,251.4215 863.2231,250.8404 Z " fill="#000000"/><text fill="#000000" font-family="sans-serif" font-size="14" lengthAdjust="spacing" textLength="118" x="881.25" y="252.711">RestaurantFinder</text><line style="stroke:#181818;stroke-width:0.5;" x1="785.5" x2="1062.5" y1="263.42" y2="263.42"/><line style="stroke:#181818;stroke-width:0.5;" x1="785.5" x2="1062.5" y1="271.42" y2="271.42"/><text fill="#000000" font-family="sans-serif" font-size="14" lengthAdjust="spacing" textLength="267" x="790.5" y="288.9552">+suggest(dayPlan, prefs) : Restaurant[]</text></g><!--class HotelRanker--><g id="elem_HotelRanker"><rect codeLine="88" fill="#F1F1F1" height="64.4883" id="HotelRanker" rx="2.5" ry="2.5" style="stroke:#181818;stroke-width:0.5;" width="187" x="1098.5" y="231.42"/><ellipse cx="1145.75" cy="247.42" fill="#ADD1B2" rx="11" ry="11" style="stroke:#181818;stroke-width:1.0;"/><path d="M1148.2231,253.5631 Q1147.6421,253.8619 1147.0029,254.0113 Q1146.3638,254.1607 1145.6582,254.1607 Q1143.1514,254.1607 1141.8315,252.5089 Q1140.5117,250.857 1140.5117,247.7359 Q1140.5117,244.6065 1141.8315,242.9547 Q1143.1514,241.3028 1145.6582,241.3028 Q1146.3638,241.3028 1147.0112,241.4522 Q1147.6587,241.6016 1148.2231,241.9005 L1148.2231,244.6231 Q1147.5923,244.0421 1146.9988,243.7723 Q1146.4053,243.5025 1145.7744,243.5025 Q1144.4297,243.5025 1143.7449,244.5692 Q1143.0601,245.6358 1143.0601,247.7359 Q1143.0601,249.8277 1143.7449,250.8944 Q1144.4297,251.961 1145.7744,251.961 Q1146.4053,251.961 1146.9988,251.6912 Q1147.5923,251.4215 1148.2231,250.8404 Z " fill="#000000"/><text fill="#000000" font-family="sans-serif" font-size="14" lengthAdjust="spacing" textLength="84" x="1166.25" y="252.711">HotelRanker</text><line style="stroke:#181818;stroke-width:0.5;" x1="1099.5" x2="1284.5" y1="263.42" y2="263.42"/><line style="stroke:#181818;stroke-width:0.5;" x1="1099.5" x2="1284.5" y1="271.42" y2="271.42"/><text fill="#000000" font-family="sans-serif" font-size="14" lengthAdjust="spacing" textLength="175" x="1104.5" y="288.9552">+rank(itin, prefs) : Hotel[]</text></g><!--reverse link Itinerary to DayPlan--><g id="link_Itinerary_DayPlan"><path codeLine="93" d="M155.7298,340.7251 C148.2598,365.1451 143.27,381.44 135.8,405.87 " fill="none" id="Itinerary-backto-DayPlan" style="stroke:#181818;stroke-width:1.0;"/><polygon fill="none" points="159.24,329.25,153.6599,333.8175,155.7298,340.7251,161.3099,336.1576,159.24,329.25" style="stroke:#181818;stroke-width:1.0;"/><text fill="#000000" font-family="sans-serif" font-size="13" lengthAdjust="spacing" textLength="8" x="148.7898" y="349.3717">1</text><text fill="#000000" font-family="sans-serif" font-size="13" lengthAdjust="spacing" textLength="6" x="131.6375" y="395.4468">*</text></g><!--reverse link DayPlan to POI--><g id="link_DayPlan_POI"><path codeLine="94" d="M87.6325,548.6166 C82.6125,563.5766 81.59,568.17 78,583.3 C71.91,608.91 67.34,637.25 63.98,662.91 " fill="none" id="DayPlan-backto-POI" style="stroke:#181818;stroke-width:1.0;"/><polygon fill="none" points="91.45,537.24,85.749,541.6558,87.6325,548.6166,93.3334,544.2008,91.45,537.24" style="stroke:#181818;stroke-width:1.0;"/><text fill="#000000" font-family="sans-serif" font-size="13" lengthAdjust="spacing" textLength="6" x="82.6089" y="557.3679">*</text><text fill="#000000" font-family="sans-serif" font-size="13" lengthAdjust="spacing" textLength="6" x="58.4235" y="652.5141">*</text></g><!--reverse link DayPlan to Restaurant--><g id="link_DayPlan_Restaurant"><path codeLine="95" d="M107.1226,549.0397 C106.2726,569.5297 107.76,580.12 113,600.3 C118.74,622.41 128.7,644.73 139.69,664.97 " fill="none" id="DayPlan-backto-Restaurant" style="stroke:#181818;stroke-width:1.0;"/><polygon fill="none" points="107.62,537.05,103.3747,542.8791,107.1226,549.0397,111.3679,543.2106,107.62,537.05" style="stroke:#181818;stroke-width:1.0;"/><text fill="#000000" font-family="sans-serif" font-size="13" lengthAdjust="spacing" textLength="35" x="114" y="596.8684">lunch</text><text fill="#000000" font-family="sans-serif" font-size="13" lengthAdjust="spacing" textLength="8" x="98.3433" y="557.1583">1</text><text fill="#000000" font-family="sans-serif" font-size="13" lengthAdjust="spacing" textLength="24" x="108.1385" y="652.4373">0..1</text></g><!--reverse link DayPlan to Restaurant--><g id="link_DayPlan_Restaurant"><path codeLine="96" d="M143.1759,548.6136 C148.2759,563.6436 149.61,568.28 154,583.3 C158.39,598.32 162.68,614.22 166.71,629.96 " fill="none" id="DayPlan-backto-Restaurant-1" style="stroke:#181818;stroke-width:1.0;"/><polygon fill="none" points="139.32,537.25,137.4601,544.2171,143.1759,548.6136,145.0358,541.6465,139.32,537.25" style="stroke:#181818;stroke-width:1.0;"/><text fill="#000000" font-family="sans-serif" font-size="13" lengthAdjust="spacing" textLength="40" x="158.68" y="596.8684">dinner</text><text fill="#000000" font-family="sans-serif" font-size="13" lengthAdjust="spacing" textLength="8" x="133.3124" y="557.3789">1</text><text fill="#000000" font-family="sans-serif" font-size="13" lengthAdjust="spacing" textLength="24" x="140.257" y="619.689">0..1</text></g><!--reverse link Itinerary to Hotel--><g id="link_Itinerary_Hotel"><path codeLine="97" d="M202.6319,340.7092 C208.5719,359.8192 211.59,369.53 217.81,389.54 " fill="none" id="Itinerary-backto-Hotel" style="stroke:#181818;stroke-width:1.0;"/><polygon fill="none" points="199.07,329.25,197.0312,336.1669,202.6319,340.7092,204.6707,333.7923,199.07,329.25" style="stroke:#181818;stroke-width:1.0;"/><text fill="#000000" font-family="sans-serif" font-size="13" lengthAdjust="spacing" textLength="8" x="192.7272" y="349.3717">1</text><text fill="#000000" font-family="sans-serif" font-size="13" lengthAdjust="spacing" textLength="24" x="190.4978" y="379.1467">0..1</text></g><!--link PlannerService to Clusterer--><g id="link_PlannerService_Clusterer"><path codeLine="99" d="M532.23,137.88 C488.63,169.29 443.0682,202.1028 407.9082,227.4328 " fill="none" id="PlannerService-to-Clusterer" style="stroke:#181818;stroke-width:1.0;stroke-dasharray:7.0,7.0;"/><polygon fill="#181818" points="403.04,230.94,412.6805,228.9247,407.0969,228.0174,408.0042,222.4337,403.04,230.94" style="stroke:#181818;stroke-width:1.0;"/></g><!--link PlannerService to Router--><g id="link_PlannerService_Router"><path codeLine="100" d="M622,137.88 C622,169.29 622,199.61 622,224.94 " fill="none" id="PlannerService-to-Router" style="stroke:#181818;stroke-width:1.0;stroke-dasharray:7.0,7.0;"/><polygon fill="#181818" points="622,230.94,626,221.94,622,225.94,618,221.94,622,230.94" style="stroke:#181818;stroke-width:1.0;"/></g><!--link PlannerService to RestaurantFinder--><g id="link_PlannerService_RestaurantFinder"><path codeLine="101" d="M725.09,137.88 C775.15,169.29 827.9776,202.4211 868.3476,227.7511 " fill="none" id="PlannerService-to-RestaurantFinder" style="stroke:#181818;stroke-width:1.0;stroke-dasharray:7.0,7.0;"/><polygon fill="#181818" points="873.43,230.94,867.9324,222.7683,869.1947,228.2826,863.6805,229.5449,873.43,230.94" style="stroke:#181818;stroke-width:1.0;"/></g><!--link PlannerService to HotelRanker--><g id="link_PlannerService_HotelRanker"><path codeLine="102" d="M783.23,132.44 C788.87,134.18 794.47,135.85 800,137.44 C922.82,172.76 961.81,152.33 1081,198.44 C1102.91,206.91 1120.4862,216.188 1139.6062,227.838 " fill="none" id="PlannerService-to-HotelRanker" style="stroke:#181818;stroke-width:1.0;stroke-dasharray:7.0,7.0;"/><polygon fill="#181818" points="1144.73,230.96,1139.1256,222.8612,1140.4602,228.3584,1134.963,229.6929,1144.73,230.96" style="stroke:#181818;stroke-width:1.0;"/></g><!--link PlannerService to Itinerary--><g id="link_PlannerService_Itinerary"><path codeLine="103" d="M460.56,107.65 C389.69,127.33 307.65,156.63 241,198.44 C235.09,202.15 233.8891,202.6061 228.4291,207.3261 " fill="none" id="PlannerService-to-Itinerary" style="stroke:#181818;stroke-width:1.0;stroke-dasharray:7.0,7.0;"/><polygon fill="#181818" points="223.89,211.25,233.3145,208.3902,227.6726,207.9801,228.0827,202.3381,223.89,211.25" style="stroke:#181818;stroke-width:1.0;"/></g><!--SRC=[fLHDZzCm4BtdLrYzK3wsBDULO8MsMgZKYggxd1278PbDHqtio9vq2MZ_EsF7-MW94e8Ud8ddpSlpct7TWNG55agL5k3SUsPBtsh6LMhq7Vr0TPaapzHR-QabCAZNAZCba6xXw48g2IzgnQJHWctKpqGfocH9YHjvPD0uUUmDOo7FHx2QTEwIfoIMBg7P5g27mYCvObzJr3hTUmhIGYu16uRYdaeSghUVLaEb1ab97R1VZPRLWYZBVO17miSRKskVB6l77yn0yz7B-nUYobAAQppAuNgo7Jg6seBc_sGK4sinGwCBBY3VG-v3Kw5UHtDyl6mDwWLyTcYt5XzS-7xi05iGpet9l8uCsTHsJINnXhGq_UmBGSGET3woUctIGo3afiBsN4_zXDoXFKh9oL3ujegkc0gbBtFqSy8uhxo-Lweo96iXrExwkReQ1ic3NPtducLepfma8tXVve5XyyjN3uEQpPRImmQXS14dXrvbxdfKSC9iiHVIueE2ts3ulJAM8-IXP0-ufM9aoaqXauGMRNkyj7sTjySwU7oSRv4w38WHnsE5zV4yQq4dLamLzfDrIphhAA9D7Sdep0D-p1Aia-OUUWqI_ydVeSKxbEabezsUgjZduThFtioKkRXGinUpJdZItMo_r-NalWxxNStbOY7XwDfSnRl_DyZuxp0XfGM7WoJ9sJ0k5k-6taqbsnvDPiwQC8KPMJoLxiN-0W00]--></g></svg>