<?xml version="1.0" encoding="us-ascii" standalone="no"?><svg xmlns="http://www.w3.org/2000/svg" xmlns:xlink="http://www.w3.org/1999/xlink" contentStyleType="text/css" height="494px" preserveAspectRatio="none" style="width:807px;height:494px;background:#FFFFFF;" version="1.1" viewBox="0 0 807 494" width="807px" zoomAndPan="magnify"><defs/><g><rect fill="none" height="210.1289" style="stroke:#000000;stroke-width:1.5;" width="446.5" x="355" y="157.1094"/><rect fill="none" height="149.5078" style="stroke:#000000;stroke-width:1.5;" width="426.5" x="365" y="210.7305"/><line style="stroke:#181818;stroke-width:0.5;stroke-dasharray:5.0,5.0;" x1="36" x2="36" y1="81.4883" y2="413.5488"/><line style="stroke:#181818;stroke-width:0.5;stroke-dasharray:5.0,5.0;" x1="211" x2="211" y1="81.4883" y2="413.5488"/><line style="stroke:#181818;stroke-width:0.5;stroke-dasharray:5.0,5.0;" x1="432" x2="432" y1="81.4883" y2="413.5488"/><line style="stroke:#181818;stroke-width:0.5;stroke-dasharray:5.0,5.0;" x1="602" x2="602" y1="81.4883" y2="413.5488"/><line style="stroke:#181818;stroke-width:0.5;stroke-dasharray:5.0,5.0;" x1="745.5" x2="745.5" y1="81.4883" y2="413.5488"/><text fill="#000000" font-family="sans-serif" font-size="14" lengthAdjust="spacing" textLength="56" x="5" y="78.5352">Traveler</text><ellipse cx="36" cy="13.5" fill="#E2E2F0" rx="8" ry="8" style="stroke:#181818;stroke-width:0.5;"/><path d="M36,21.5 L36,48.5 M23,29.5 L49,29.5 M36,48.5 L23,63.5 M36,48.5 L49,63.5 " fill="none" style="stroke:#181818;stroke-width:0.5;"/><text fill="#000000" font-family="sans-serif" font-size="14" lengthAdjust="spacing" textLength="56" x="5" y="426.084">Traveler</text><ellipse cx="36" cy="437.5371" fill="#E2E2F0" rx="8" ry="8" style="stroke:#181818;stroke-width:0.5;"/><path d="M36,445.5371 L36,472.5371 M23,453.5371 L49,453.5371 M36,472.5371 L23,487.5371 M36,472.5371 L49,487.5371 " fill="none" style="stroke:#181818;stroke-width:0.5;"/><rect fill="#E2E2F0" height="30.4883" rx="2.5" ry="2.5" style="stroke:#181818;stroke-width:0.5;" width="28" x="197" y="50"/><text fill="#000000" font-family="sans-serif" font-size="14" lengthAdjust="spacing" textLength="14" x="204" y="70.5352">UI</text><rect fill="#E2E2F0" height="30.4883" rx="2.5" ry="2.5" style="stroke:#181818;stroke-width:0.5;" width="28" x="197" y="412.5488"/><text fill="#000000" font-family="sans-serif" font-size="14" lengthAdjust="spacing" textLength="14" x="204" y="433.084">UI</text><rect fill="#E2E2F0" height="30.4883" rx="2.5" ry="2.5" style="stroke:#181818;stroke-width:0.5;" width="114" x="375" y="50"/><text fill="#000000" font-family="sans-serif" font-size="14" lengthAdjust="spacing" textLength="100" x="382" y="70.5352">PlannerService</text><rect fill="#E2E2F0" height="30.4883" rx="2.5" ry="2.5" style="stroke:#181818;stroke-width:0.5;" width="114" x="375" y="412.5488"/><text fill="#000000" font-family="sans-serif" font-size="14" lengthAdjust="spacing" textLength="100" x="382" y="433.084">PlannerService</text><rect fill="#E2E2F0" height="30.4883" rx="2.5" ry="2.5" style="stroke:#181818;stroke-width:0.5;" width="132" x="536" y="50"/><text fill="#000000" font-family="sans-serif" font-size="14" lengthAdjust="spacing" textLength="118" x="543" y="70.5352">RestaurantFinder</text><rect fill="#E2E2F0" height="30.4883" rx="2.5" ry="2.5" style="stroke:#181818;stroke-width:0.5;" width="132" x="536" y="412.5488"/><text fill="#000000" font-family="sans-serif" font-size="14" lengthAdjust="spacing" textLength="118" x="543" y="433.084">RestaurantFinder</text><rect fill="#E2E2F0" height="30.4883" rx="2.5" ry="2.5" style="stroke:#181818;stroke-width:0.5;" width="71" x="710.5" y="50"/><text fill="#000000" font-family="sans-serif" font-size="14" lengthAdjust="spacing" textLength="57" x="717.5" y="70.5352">Itinerary</text><rect fill="#E2E2F0" height="30.4883" rx="2.5" ry="2.5" style="stroke:#181818;stroke-width:0.5;" width="71" x="710.5" y="412.5488"/><text fill="#000000" font-family="sans-serif" font-size="14" lengthAdjust="spacing" textLength="57" x="717.5" y="433.084">Itinerary</text><polygon fill="#181818" points="199,108.7988,209,112.7988,199,116.7988,203,112.7988" style="stroke:#181818;stroke-width:1.0;"/><line style="stroke:#181818;stroke-width:1.0;" x1="36" x2="205" y1="112.7988" y2="112.7988"/><text fill="#000000" font-family="sans-serif" font-size="13" lengthAdjust="spacing" textLength="151" x="43" y="108.0566">Toggle Auto-Pick Meals</text><polygon fill="#181818" points="420,138.1094,430,142.1094,420,146.1094,424,142.1094" style="stroke:#181818;stroke-width:1.0;"/><line style="stroke:#181818;stroke-width:1.0;" x1="211" x2="426" y1="142.1094" y2="142.1094"/><text fill="#000000" font-family="sans-serif" font-size="13" lengthAdjust="spacing" textLength="185" x="218" y="137.3672">autoPickMeals(itinId, dayIds?)</text><path d="M355,157.1094 L429,157.1094 L429,164.4199 L419,174.4199 L355,174.4199 L355,157.1094 " fill="#EEEEEE" style="stroke:#000000;stroke-width:1.5;"/><rect fill="none" height="210.1289" style="stroke:#000000;stroke-width:1.5;" width="446.5" x="355" y="157.1094"/><text fill="#000000" font-family="sans-serif" font-size="13" font-weight="bold" lengthAdjust="spacing" textLength="29" x="370" y="170.6777">loop</text><text fill="#000000" font-family="sans-serif" font-size="11" font-weight="bold" lengthAdjust="spacing" textLength="56" x="444" y="169.7441">[each day]</text><polygon fill="#181818" points="590,191.7305,600,195.7305,590,199.7305,594,195.7305" style="stroke:#181818;stroke-width:1.0;"/><line style="stroke:#181818;stroke-width:1.0;" x1="432" x2="596" y1="195.7305" y2="195.7305"/><text fill="#000000" font-family="sans-serif" font-size="13" lengthAdjust="spacing" textLength="146" x="439" y="190.9883">suggest(dayPlan, prefs)</text><path d="M365,210.7305 L427,210.7305 L427,218.041 L417,228.041 L365,228.041 L365,210.7305 " fill="#EEEEEE" style="stroke:#000000;stroke-width:1.5;"/><rect fill="none" height="149.5078" style="stroke:#000000;stroke-width:1.5;" width="426.5" x="365" y="210.7305"/><text fill="#000000" font-family="sans-serif" font-size="13" font-weight="bold" lengthAdjust="spacing" textLength="17" x="380" y="224.2988">alt</text><text fill="#000000" font-family="sans-serif" font-size="11" font-weight="bold" lengthAdjust="spacing" textLength="104" x="442" y="223.3652">[candidates found]</text><polygon fill="#181818" points="443,245.3516,433,249.3516,443,253.3516,439,249.3516" style="stroke:#181818;stroke-width:1.0;"/><line style="stroke:#181818;stroke-width:1.0;stroke-dasharray:2.0,2.0;" x1="437" x2="601" y1="249.3516" y2="249.3516"/><text fill="#000000" font-family="sans-serif" font-size="13" lengthAdjust="spacing" textLength="91" x="449" y="244.6094">{lunch, dinner}</text><polygon fill="#181818" points="734,274.6621,744,278.6621,734,282.6621,738,278.6621" style="stroke:#181818;stroke-width:1.0;"/><line style="stroke:#181818;stroke-width:1.0;" x1="432" x2="740" y1="278.6621" y2="278.6621"/><text fill="#000000" font-family="sans-serif" font-size="13" lengthAdjust="spacing" textLength="176" x="439" y="273.9199">setMeals(day, lunch, dinner)</text><line style="stroke:#000000;stroke-width:1.0;stroke-dasharray:2.0,2.0;" x1="365" x2="791.5" y1="287.6621" y2="287.6621"/><text fill="#000000" font-family="sans-serif" font-size="11" font-weight="bold" lengthAdjust="spacing" textLength="79" x="370" y="298.2969">[no candidate]</text><polygon fill="#181818" points="443,318.9277,433,322.9277,443,326.9277,439,322.9277" style="stroke:#181818;stroke-width:1.0;"/><line style="stroke:#181818;stroke-width:1.0;stroke-dasharray:2.0,2.0;" x1="437" x2="601" y1="322.9277" y2="322.9277"/><text fill="#000000" font-family="sans-serif" font-size="13" lengthAdjust="spacing" textLength="31" x="449" y="318.1855">none</text><polygon fill="#181818" points="734,348.2383,744,352.2383,734,356.2383,738,352.2383" style="stroke:#181818;stroke-width:1.0;"/><line style="stroke:#181818;stroke-width:1.0;" x1="432" x2="740" y1="352.2383" y2="352.2383"/><text fill="#000000" font-family="sans-serif" font-size="13" lengthAdjust="spacing" textLength="290" x="439" y="347.4961">setFallback(day)  # nearest open within detour</text><polygon fill="#181818" points="222,391.5488,212,395.5488,222,399.5488,218,395.5488" style="stroke:#181818;stroke-width:1.0;"/><line style="stroke:#181818;stroke-width:1.0;stroke-dasharray:2.0,2.0;" x1="216" x2="431" y1="395.5488" y2="395.5488"/><text fill="#000000" font-family="sans-serif" font-size="13" lengthAdjust="spacing" textLength="197" x="228" y="390.8066">Show meals with explain/notes</text><!--SRC=[PP31QiCm44Jl_eeblSGGqtiEBRqOT2YOsFw0hRInHTILaUIaeVJVkt9IYjk3mSpElfaLwkG3T07Fv2WK4uPajPsG4snwjG6CqAkrt3Xafj1IE5jDYwLfrvO3nOHpaF_Qig6mc0xrsgII5Go6wp9LNL7yr83gILBtqFbXS0GlS_9LO_K9NWbTB7gL3Ksx1vH97YpwrWfGcHqOl2eJdyl2UJy1eHwpL82ivCL3lOSu3uDqt8gUpzd15EWOI_6WIw2HZJMOACBHpsn41bc3wXxxwMRMemJP_11Vo_Z6LfsmATtw27m7AsiE81S9sF-6_AMpP_gFhD6vDzIdJ2q17e09Wvm0VYA6YqsZPJ2K_1noY9JENqRS7xCT_GNUSx753VGnERJyo5xk_0O0]--></g></svg>