<?xml version="1.0" encoding="us-ascii" standalone="no"?><svg xmlns="http://www.w3.org/2000/svg" xmlns:xlink="http://www.w3.org/1999/xlink" contentStyleType="text/css" height="492px" preserveAspectRatio="none" style="width:847px;height:492px;background:#FFFFFF;" version="1.1" viewBox="0 0 847 492" width="847px" zoomAndPan="magnify"><defs/><g><rect fill="none" height="178.8184" style="stroke:#000000;stroke-width:1.5;" width="634" x="206" y="215.7305"/><line style="stroke:#181818;stroke-width:0.5;stroke-dasharray:5.0,5.0;" x1="36" x2="36" y1="81.4883" y2="411.5488"/><line style="stroke:#181818;stroke-width:0.5;stroke-dasharray:5.0,5.0;" x1="230" x2="230" y1="81.4883" y2="411.5488"/><line style="stroke:#181818;stroke-width:0.5;stroke-dasharray:5.0,5.0;" x1="504" x2="504" y1="81.4883" y2="411.5488"/><line style="stroke:#181818;stroke-width:0.5;stroke-dasharray:5.0,5.0;" x1="719" x2="719" y1="81.4883" y2="411.5488"/><line style="stroke:#181818;stroke-width:0.5;stroke-dasharray:5.0,5.0;" x1="794" x2="794" y1="81.4883" y2="411.5488"/><text fill="#000000" font-family="sans-serif" font-size="14" lengthAdjust="spacing" textLength="56" x="5" y="78.5352">Traveler</text><ellipse cx="36" cy="13.5" fill="#E2E2F0" rx="8" ry="8" style="stroke:#181818;stroke-width:0.5;"/><path d="M36,21.5 L36,48.5 M23,29.5 L49,29.5 M36,48.5 L23,63.5 M36,48.5 L49,63.5 " fill="none" style="stroke:#181818;stroke-width:0.5;"/><text fill="#000000" font-family="sans-serif" font-size="14" lengthAdjust="spacing" textLength="56" x="5" y="424.084">Traveler</text><ellipse cx="36" cy="435.5371" fill="#E2E2F0" rx="8" ry="8" style="stroke:#181818;stroke-width:0.5;"/><path d="M36,443.5371 L36,470.5371 M23,451.5371 L49,451.5371 M36,470.5371 L23,485.5371 M36,470.5371 L49,485.5371 " fill="none" style="stroke:#181818;stroke-width:0.5;"/><rect fill="#E2E2F0" height="30.4883" rx="2.5" ry="2.5" style="stroke:#181818;stroke-width:0.5;" width="28" x="216" y="50"/><text fill="#000000" font-family="sans-serif" font-size="14" lengthAdjust="spacing" textLength="14" x="223" y="70.5352">UI</text><rect fill="#E2E2F0" height="30.4883" rx="2.5" ry="2.5" style="stroke:#181818;stroke-width:0.5;" width="28" x="216" y="410.5488"/><text fill="#000000" font-family="sans-serif" font-size="14" lengthAdjust="spacing" textLength="14" x="223" y="431.084">UI</text><rect fill="#E2E2F0" height="30.4883" rx="2.5" ry="2.5" style="stroke:#181818;stroke-width:0.5;" width="114" x="447" y="50"/><text fill="#000000" font-family="sans-serif" font-size="14" lengthAdjust="spacing" textLength="100" x="454" y="70.5352">PlannerService</text><rect fill="#E2E2F0" height="30.4883" rx="2.5" ry="2.5" style="stroke:#181818;stroke-width:0.5;" width="114" x="447" y="410.5488"/><text fill="#000000" font-family="sans-serif" font-size="14" lengthAdjust="spacing" textLength="100" x="454" y="431.084">PlannerService</text><rect fill="#E2E2F0" height="30.4883" rx="2.5" ry="2.5" style="stroke:#181818;stroke-width:0.5;" width="60" x="689" y="50"/><text fill="#000000" font-family="sans-serif" font-size="14" lengthAdjust="spacing" textLength="46" x="696" y="70.5352">Router</text><rect fill="#E2E2F0" height="30.4883" rx="2.5" ry="2.5" style="stroke:#181818;stroke-width:0.5;" width="60" x="689" y="410.5488"/><text fill="#000000" font-family="sans-serif" font-size="14" lengthAdjust="spacing" textLength="46" x="696" y="431.084">Router</text><rect fill="#E2E2F0" height="30.4883" rx="2.5" ry="2.5" style="stroke:#181818;stroke-width:0.5;" width="71" x="759" y="50"/><text fill="#000000" font-family="sans-serif" font-size="14" lengthAdjust="spacing" textLength="57" x="766" y="70.5352">Itinerary</text><rect fill="#E2E2F0" height="30.4883" rx="2.5" ry="2.5" style="stroke:#181818;stroke-width:0.5;" width="71" x="759" y="410.5488"/><text fill="#000000" font-family="sans-serif" font-size="14" lengthAdjust="spacing" textLength="57" x="766" y="431.084">Itinerary</text><polygon fill="#181818" points="218,108.7988,228,112.7988,218,116.7988,222,112.7988" style="stroke:#181818;stroke-width:1.0;"/><line style="stroke:#181818;stroke-width:1.0;" x1="36" x2="224" y1="112.7988" y2="112.7988"/><text fill="#000000" font-family="sans-serif" font-size="13" lengthAdjust="spacing" textLength="170" x="43" y="108.0566">Lock POI/Hotel/Restaurant</text><polygon fill="#181818" points="218,138.1094,228,142.1094,218,146.1094,222,142.1094" style="stroke:#181818;stroke-width:1.0;"/><line style="stroke:#181818;stroke-width:1.0;" x1="36" x2="224" y1="142.1094" y2="142.1094"/><text fill="#000000" font-family="sans-serif" font-size="13" lengthAdjust="spacing" textLength="105" x="43" y="137.3672">Click Regenerate</text><polygon fill="#181818" points="492,167.4199,502,171.4199,492,175.4199,496,171.4199" style="stroke:#181818;stroke-width:1.0;"/><line style="stroke:#181818;stroke-width:1.0;" x1="230" x2="498" y1="171.4199" y2="171.4199"/><text fill="#000000" font-family="sans-serif" font-size="13" lengthAdjust="spacing" textLength="149" x="237" y="166.6777">regenerate(itinId, locks)</text><polygon fill="#181818" points="707,196.7305,717,200.7305,707,204.7305,711,200.7305" style="stroke:#181818;stroke-width:1.0;"/><line style="stroke:#181818;stroke-width:1.0;" x1="504" x2="713" y1="200.7305" y2="200.7305"/><text fill="#000000" font-family="sans-serif" font-size="13" lengthAdjust="spacing" textLength="191" x="511" y="195.9883">route(existingDayPlans, locks)</text><path d="M206,215.7305 L268,215.7305 L268,223.041 L258,233.041 L206,233.041 L206,215.7305 " fill="#EEEEEE" style="stroke:#000000;stroke-width:1.5;"/><rect fill="none" height="178.8184" style="stroke:#000000;stroke-width:1.5;" width="634" x="206" y="215.7305"/><text fill="#000000" font-family="sans-serif" font-size="13" font-weight="bold" lengthAdjust="spacing" textLength="17" x="221" y="229.2988">alt</text><text fill="#000000" font-family="sans-serif" font-size="11" font-weight="bold" lengthAdjust="spacing" textLength="52" x="283" y="228.3652">[feasible]</text><polygon fill="#181818" points="515,250.3516,505,254.3516,515,258.3516,511,254.3516" style="stroke:#181818;stroke-width:1.0;"/><line style="stroke:#181818;stroke-width:1.0;stroke-dasharray:2.0,2.0;" x1="509" x2="718" y1="254.3516" y2="254.3516"/><text fill="#000000" font-family="sans-serif" font-size="13" lengthAdjust="spacing" textLength="106" x="521" y="249.6094">newOrderedDays</text><polygon fill="#181818" points="782.5,279.6621,792.5,283.6621,782.5,287.6621,786.5,283.6621" style="stroke:#181818;stroke-width:1.0;"/><line style="stroke:#181818;stroke-width:1.0;" x1="504" x2="788.5" y1="283.6621" y2="283.6621"/><text fill="#000000" font-family="sans-serif" font-size="13" lengthAdjust="spacing" textLength="188" x="511" y="278.9199">updateDays(newOrderedDays)</text><polygon fill="#181818" points="241,308.9727,231,312.9727,241,316.9727,237,312.9727" style="stroke:#181818;stroke-width:1.0;"/><line style="stroke:#181818;stroke-width:1.0;stroke-dasharray:2.0,2.0;" x1="235" x2="503" y1="312.9727" y2="312.9727"/><text fill="#000000" font-family="sans-serif" font-size="13" lengthAdjust="spacing" textLength="197" x="247" y="308.2305">Show updated plan (locks kept)</text><line style="stroke:#000000;stroke-width:1.0;stroke-dasharray:2.0,2.0;" x1="206" x2="840" y1="321.9727" y2="321.9727"/><text fill="#000000" font-family="sans-serif" font-size="11" font-weight="bold" lengthAdjust="spacing" textLength="63" x="211" y="332.6074">[infeasible]</text><polygon fill="#181818" points="515,353.2383,505,357.2383,515,361.2383,511,357.2383" style="stroke:#181818;stroke-width:1.0;"/><line style="stroke:#181818;stroke-width:1.0;stroke-dasharray:2.0,2.0;" x1="509" x2="718" y1="357.2383" y2="357.2383"/><text fill="#000000" font-family="sans-serif" font-size="13" lengthAdjust="spacing" textLength="48" x="521" y="352.4961">conflict</text><polygon fill="#181818" points="241,382.5488,231,386.5488,241,390.5488,237,386.5488" style="stroke:#181818;stroke-width:1.0;"/><line style="stroke:#181818;stroke-width:1.0;stroke-dasharray:2.0,2.0;" x1="235" x2="503" y1="386.5488" y2="386.5488"/><text fill="#000000" font-family="sans-serif" font-size="13" lengthAdjust="spacing" textLength="250" x="247" y="381.8066">Explain conflict (add day/remove locks)</text><!--SRC=[RO_DQiCm48JlUeeb9niQVC-XbxPGGI76Fm-mjJQfY2gPbUp4Rz-rwmHCUztvPcO7knGO6iQH7B7gaPFjR8y-mQxLEy08hTwUIuVU4zV4e-reGSfwYrHXICIBL3LRIIShPkHfKNMZrBqSzi_ITO2Fq5sWFEhYFIHoHKKnuS1Y_aE-E2jeHMUQ8nEfLizIMH-07yVCIgCsJ-0aD-Qgh6UcQeIPlypePgCGvrUSvcNn0Q9BS2ACzjEH0d70VWttT3so8IOZfYZQRwQMpA4tqZcViosLhzZwUlqLhYjie9TUo9PQk52VSaKk4bZ_VtqN_4cMfstYsqrYh7-eaA4nO70gcBx3IFTPvCqF]--></g></svg>